<svg width="21" height="21" viewBox="0 0 21 21" fill="none" xmlns="http://www.w3.org/2000/svg">
<path d="M14.4313 8.11426H6.09798C4.94739 8.11426 4.01465 9.047 4.01465 10.1976V16.4476C4.01465 17.5982 4.94739 18.5309 6.09798 18.5309H14.4313C15.5819 18.5309 16.5146 17.5982 16.5146 16.4476V10.1976C16.5146 9.047 15.5819 8.11426 14.4313 8.11426Z" stroke="#1E285F" stroke-width="1.4" stroke-linecap="round" stroke-linejoin="round"/>
<path d="M10.2648 1.86426C9.15974 1.86426 8.09993 2.30324 7.31853 3.08465C6.53713 3.86605 6.09814 4.92586 6.09814 6.03092V8.11426H14.4315V6.03092C14.4315 4.92586 13.9925 3.86605 13.2111 3.08465C12.4297 2.30324 11.3699 1.86426 10.2648 1.86426V1.86426Z" stroke="#1E285F" stroke-width="1.4" stroke-linecap="round" stroke-linejoin="round"/>
</svg>
